# xmcd
#
# Track frame offsets: 
#        150
#        19819
#        39795
#        64257
#        80896
#        100349
#        119691
#        140092
#        157219
#        177634
#        200675
#
# Disc length: 2980 seconds
#
# Revision: 0
# Processed by: cddbd v1.5.2PL0 Copyright (c) Steve Scherf et al.
# Submitted via: ExactAudioCopy v1.3
#
DISCID=a90ba20b
DTITLE=David Grissom - Loud Music
DYEAR=2008
DGENRE=Blues Rock
TTITLE0=Lonesome Dave
TTITLE1=Loud Music
TTITLE2=Wide Lode
TTITLE3=Hi-Tex
TTITLE4=Sake And Venom
TTITLE5=Nothin' Makes A Man Go Crazy
TTITLE6=Whiskey Cryin'
TTITLE7=Boots Likes To Boogie
TTITLE8=Lucy G
TTITLE9=Mister Quincy
TTITLE10=Midnight Drive
EXTD=
EXTT0=
EXTT1=
EXTT2=
EXTT3=
EXTT4=
EXTT5=
EXTT6=
EXTT7=
EXTT8=
EXTT9=
EXTT10=
PLAYORDER=
